<?xml version="1.0" encoding="UTF-8" standalone="no"?>
<svg
   id="svg11024"
   height="32"
   width="32"
   version="1.1"
   sodipodi:docname="bottom_left_corner.svg"
   inkscape:version="1.4.4 (dcaf3e7d9e, 2026-05-05)"
   xmlns:inkscape="http://www.inkscape.org/namespaces/inkscape"
   xmlns:sodipodi="http://sodipodi.sourceforge.net/DTD/sodipodi-0.dtd"
   xmlns="http://www.w3.org/2000/svg"
   xmlns:svg="http://www.w3.org/2000/svg">
  <defs
     id="defs1">
    <filter
       color-interpolation-filters="sRGB"
       inkscape:collect="always"
       id="filter8670-2-8"
       x="-0.22744615"
       width="1.4548923"
       y="-0.22744615"
       height="1.4548923">
      <feGaussianBlur
         inkscape:collect="always"
         stdDeviation="1.232"
         id="feGaussianBlur8672-7-3" />
    </filter>
    <filter
       color-interpolation-filters="sRGB"
       inkscape:collect="always"
       id="filter8982-7-3"
       x="-0.3666264"
       width="1.7332528"
       y="-0.24372279"
       height="1.4874456">
      <feGaussianBlur
         inkscape:collect="always"
         stdDeviation="1.2190623"
         id="feGaussianBlur8984-3-8" />
    </filter>
  </defs>
  <sodipodi:namedview
     id="namedview1"
     pagecolor="#505050"
     bordercolor="#ffffff"
     borderopacity="1"
     inkscape:showpageshadow="0"
     inkscape:pageopacity="0"
     inkscape:pagecheckerboard="1"
     inkscape:deskcolor="#505050"
     inkscape:zoom="22.627417"
     inkscape:cx="7.3583299"
     inkscape:cy="21.191106"
     inkscape:window-width="1920"
     inkscape:window-height="976"
     inkscape:window-x="1920"
     inkscape:window-y="36"
     inkscape:window-maximized="1"
     inkscape:current-layer="svg11024" />
  <filter
     id="filter7078"
     color-interpolation-filters="sRGB"
     x="-0.19658341"
     y="-0.13139998"
     width="1.3931668"
     height="1.2628">
    <feGaussianBlur
       id="feGaussianBlur7080"
       stdDeviation=".657" />
  </filter>
  <path
     transform="matrix(1,0,0,-1,-428.99902,1029.3624)"
     inkscape:connector-curvature="0"
     id="path2998-2-3-5-7-1-8-8-7-0-79-8-2"
     d="m 434.5,1000.3934 c -0.27916,0 -0.52662,0.2127 -0.75,0.4375 -0.0591,0.059 -0.13403,0.091 -0.1875,0.1563 -0.0321,0.027 -0.0628,0.066 -0.0937,0.094 -0.0143,0.019 -0.0174,0.043 -0.0312,0.062 -0.23843,0.2293 -0.4375,0.4596 -0.4375,0.75 v 10 c 0,0.831 1.5,1.5 1.5,1.5 0,0 1.5,-0.669 1.5,-1.5 v -8.5 h 8.5 c 0.831,0 1.5,-1.5 1.5,-1.5 0,0 -0.669,-1.5 -1.5,-1.5 h -10 z"
     style="color:#000000;font-style:normal;font-variant:normal;font-weight:normal;font-stretch:normal;font-size:medium;line-height:normal;font-family:Sans;-inkscape-font-specification:Sans;text-indent:0;text-align:start;text-decoration:none;text-decoration-line:none;letter-spacing:normal;word-spacing:normal;text-transform:none;writing-mode:lr-tb;direction:ltr;baseline-shift:baseline;text-anchor:start;display:inline;overflow:visible;visibility:visible;opacity:0.2;fill:#000000;fill-opacity:1;fill-rule:nonzero;stroke:none;stroke-width:2;marker:none;filter:url(#filter8670-2-8);enable-background:accumulate" />
  <path
     transform="matrix(-0.70710678,-0.70710678,-0.70710678,0.70710678,976.49358,-462.46713)"
     style="color:#000000;font-style:normal;font-variant:normal;font-weight:normal;font-stretch:normal;font-size:medium;line-height:normal;font-family:Sans;-inkscape-font-specification:Sans;text-indent:0;text-align:start;text-decoration:none;text-decoration-line:none;letter-spacing:normal;word-spacing:normal;text-transform:none;writing-mode:lr-tb;direction:ltr;baseline-shift:baseline;text-anchor:start;display:inline;overflow:visible;visibility:visible;opacity:0.2;fill:#000000;fill-opacity:1;fill-rule:nonzero;stroke:none;stroke-width:2;marker:none;filter:url(#filter8982-7-3);enable-background:accumulate"
     d="m 340,1015.375 c -0.52358,0 -0.99995,0.4764 -1,1 v 2.4375 l -1.8125,0.625 c -0.53615,0.1758 -0.83335,0.8642 -0.59375,1.375 l 3,6 c 0.13254,0.2868 0.40853,0.5028 0.71875,0.5625 0.0312,10e-4 0.0625,10e-4 0.0937,0 0.40534,0.04 0.82375,-0.1953 1,-0.5625 l 3,-6 c 0.2396,-0.5108 -0.0576,-1.1992 -0.59375,-1.375 l -1.8125,-0.625 v -2.4375 c -5e-5,-0.5236 -0.47642,-1 -1,-1 h -1 z"
     id="path7366-1-5"
     inkscape:connector-curvature="0" />
  <path
     sodipodi:nodetypes="cccccccccccccccc"
     style="color:#000000;font-style:normal;font-variant:normal;font-weight:normal;font-stretch:normal;font-size:medium;line-height:normal;font-family:Sans;-inkscape-font-specification:Sans;text-indent:0;text-align:start;text-decoration:none;text-decoration-line:none;letter-spacing:normal;word-spacing:normal;text-transform:none;writing-mode:lr-tb;direction:ltr;baseline-shift:baseline;text-anchor:start;display:inline;overflow:visible;visibility:visible;fill:#000000;fill-opacity:1;fill-rule:nonzero;stroke:none;stroke-width:2;marker:none;enable-background:accumulate"
     d="m 8.8950818,22.875556 c 0.26156,0.1771 0.60947,0.2195 0.90601,0.1105 l 6.3639582,-2.1213 c 0.53062,-0.1918 0.80693,-0.889 0.5524,-1.3922 l -0.83969,-1.7236 1.72357,-1.7235 c 0.37023,-0.3703 0.3702,-1.044 0,-1.4142 l -0.70711,-0.7072 c -0.37027,-0.3702 -1.04391,-0.3701 -1.41421,0 l -1.72357,1.7236 -1.72358,-0.8397 c -0.50341,-0.2547 -1.20031,0.022 -1.39208,0.5525 l -2.1213182,6.364 c -0.13506,0.3842 -0.006,0.8465 0.30936,1.1048 0.0212,0.023 0.0431,0.045 0.0665,0.067 z"
     id="path4801-2-9-0-2-5-8"
     inkscape:connector-curvature="0" />
  <path
     sodipodi:nodetypes="cccccccc"
     style="display:inline;fill:#cdd3e8;fill-opacity:1;stroke:none"
     d="m 9.4702718,22.037356 6.3639582,-2.1213 -1.17115,-2.3644 2.23181,-2.2318 -0.70711,-0.7071 -2.23181,2.2318 -2.36438,-1.1711 z"
     id="path4801-8-9-6-9-0"
     inkscape:connector-curvature="0" />
  <path
     sodipodi:nodetypes="scsssscsssss"
     inkscape:connector-curvature="0"
     id="rect5654-8-5-0-0-9"
     d="m 5.4697018,28.000956 c -0.71198,0 -1.46875,-0.2187 -1.46875,-1.4687 v -10.0313 c 0,-0.831 0.65506,-1.5 1.46875,-1.5 h 0.0625 c 0.81369,0 1.46875,0.669 1.46875,1.5 v 8.5 H 15.50095 c 0.831,0 1.5,0.6551 1.5,1.4688 v 0.062 c 0,0.8137 -0.669,1.4687 -1.5,1.4687 z"
     style="display:inline;fill:#000000;fill-opacity:1;stroke:none" />
  <path
     sodipodi:nodetypes="ccccccccc"
     inkscape:connector-curvature="0"
     id="rect5654-9-4-00-80"
     d="m 5.0009518,27.000956 v -1 -10 h 1 v 10 H 16.00095 v 1 H 6.0009518 Z"
     style="display:inline;fill:#cdd3e8;fill-opacity:1;stroke:none" />
  <path
     id="hotspot"
     d="m6.15 27.85v-1h-1v1z"
     display="none"
     fill="#333"
     stroke-width="1.07568" />
</svg>
