<?xml version="1.0" encoding="UTF-8" standalone="no"?>
<svg
   id="svg11024"
   height="32"
   width="32"
   version="1.1"
   sodipodi:docname="cell.svg"
   inkscape:version="1.4.4 (dcaf3e7d9e, 2026-05-05)"
   xmlns:inkscape="http://www.inkscape.org/namespaces/inkscape"
   xmlns:sodipodi="http://sodipodi.sourceforge.net/DTD/sodipodi-0.dtd"
   xmlns="http://www.w3.org/2000/svg"
   xmlns:svg="http://www.w3.org/2000/svg">
  <defs
     id="defs1" />
  <sodipodi:namedview
     id="namedview1"
     pagecolor="#505050"
     bordercolor="#ffffff"
     borderopacity="1"
     inkscape:showpageshadow="0"
     inkscape:pageopacity="0"
     inkscape:pagecheckerboard="1"
     inkscape:deskcolor="#505050"
     inkscape:zoom="23.96875"
     inkscape:cx="16"
     inkscape:cy="16"
     inkscape:window-width="1920"
     inkscape:window-height="976"
     inkscape:window-x="1920"
     inkscape:window-y="36"
     inkscape:window-maximized="1"
     inkscape:current-layer="svg11024" />
  <filter
     id="filter7078"
     color-interpolation-filters="sRGB"
     x="-0.12129231"
     y="-0.12129231"
     width="1.2425846"
     height="1.2425846">
    <feGaussianBlur
       id="feGaussianBlur7080"
       stdDeviation=".657" />
  </filter>
  <path
     id="rect6496-1-9"
     d="m12.813 10.013a1.03 1.03 0 0 0 -.813 1v2h-2c-.524 0-1 .476-1 1v5c0 .523.476 1 1 1h2v2c0 .523.476 1 1 1h5c.524 0 1-.477 1-1v-2h2c.524 0 1-.477 1-1v-5c0-.524-.476-1-1-1h-2v-2c0-.524-.476-1-1-1z"
     filter="url(#filter7078)"
     opacity=".2" />
  <path
     id="rect6496-1"
     d="m12.813 9.013a1.03 1.03 0 0 0 -.813 1v2h-2c-.524 0-1 .476-1 1v5c0 .523.476 1 1 1h2v2c0 .523.476 1 1 1h5c.524 0 1-.477 1-1v-2h2c.524 0 1-.477 1-1v-5c0-.524-.476-1-1-1h-2v-2c0-.524-.476-1-1-1z"
     fill="#fff" />
  <path
     id="rect6496"
     d="m13 10.013v3h-3v5h3v3h5v-3h3v-5h-3v-3z"
     style="fill:#161925;fill-opacity:1" />
  <path
     id="hotspot"
     d="m15.5-16.5h1v1h-1z"
     display="none"
     fill="#333"
     stroke-width="1.07568"
     transform="rotate(90)" />
</svg>
