<?xml version="1.0" encoding="UTF-8" standalone="no"?>
<svg
   id="svg11024"
   height="32"
   width="32"
   version="1.1"
   sodipodi:docname="left_side.svg"
   inkscape:version="1.4.4 (dcaf3e7d9e, 2026-05-05)"
   xmlns:inkscape="http://www.inkscape.org/namespaces/inkscape"
   xmlns:sodipodi="http://sodipodi.sourceforge.net/DTD/sodipodi-0.dtd"
   xmlns="http://www.w3.org/2000/svg"
   xmlns:svg="http://www.w3.org/2000/svg">
  <defs
     id="defs1">
    <filter
       color-interpolation-filters="sRGB"
       inkscape:collect="always"
       id="filter9026"
       x="-0.19583907"
       width="1.3916781"
       y="-0.15461052"
       height="1.309221">
      <feGaussianBlur
         inkscape:collect="always"
         stdDeviation="1.224"
         id="feGaussianBlur9028" />
    </filter>
  </defs>
  <sodipodi:namedview
     id="namedview1"
     pagecolor="#505050"
     bordercolor="#ffffff"
     borderopacity="1"
     inkscape:showpageshadow="0"
     inkscape:pageopacity="0"
     inkscape:pagecheckerboard="1"
     inkscape:deskcolor="#505050"
     inkscape:zoom="16.948466"
     inkscape:cx="13.954065"
     inkscape:cy="12.538008"
     inkscape:window-width="1920"
     inkscape:window-height="976"
     inkscape:window-x="1920"
     inkscape:window-y="36"
     inkscape:window-maximized="1"
     inkscape:current-layer="svg11024" />
  <filter
     id="filter7078"
     color-interpolation-filters="sRGB"
     x="-0.19658168"
     y="-0.5256"
     width="1.3931634"
     height="2.0512">
    <feGaussianBlur
       id="feGaussianBlur7080"
       stdDeviation=".657" />
  </filter>
  <path
     style="color:#000000;font-style:normal;font-variant:normal;font-weight:normal;font-stretch:normal;font-size:medium;line-height:normal;font-family:Sans;-inkscape-font-specification:Sans;text-indent:0;text-align:start;text-decoration:none;text-decoration-line:none;letter-spacing:normal;word-spacing:normal;text-transform:none;writing-mode:lr-tb;direction:ltr;baseline-shift:baseline;text-anchor:start;display:inline;overflow:visible;visibility:visible;opacity:0.2;fill:#000000;fill-opacity:1;fill-rule:nonzero;stroke:none;stroke-width:2;marker:none;filter:url(#filter9026);enable-background:accumulate"
     d="m 4.5023794,7.0406371 c 0,0 -1.5,0.669 -1.5,1.5 V 24.540638 c 0,0.8311 1.5,1.5 1.5,1.5 v 0 c 0,0 1.5,-0.6689 1.5,-1.5 v -8.125 c -0.0401,0.4054 0.19529,0.8238 0.5625,1 l 6.0000706,3 c 0.5108,0.2396 1.19916,-0.058 1.375,-0.5937 l 0.625,-1.8125 h 2.4375 c 0.52358,0 0.99995,-0.4764 1,-1 v -1 c -5e-5,-0.5236 -0.47642,-1 -1,-1 h -2.4375 l -0.625,-1.8125 c -0.17584,-0.5362 -0.8642,-0.8334 -1.375,-0.5938 l -6.0000706,3 c -0.28678,0.1326 -0.5028,0.4086 -0.5625,0.7188 V 8.5406371 c 0,-0.831 -1.5,-1.5 -1.5,-1.5 z"
     id="path7370"
     inkscape:connector-curvature="0"
     sodipodi:nodetypes="ssssssccccccccccccccsss" />
  <path
     sodipodi:nodetypes="cccccccccccccccc"
     style="color:#000000;font-style:normal;font-variant:normal;font-weight:normal;font-stretch:normal;font-size:medium;line-height:normal;font-family:Sans;-inkscape-font-specification:Sans;text-indent:0;text-align:start;text-decoration:none;text-decoration-line:none;letter-spacing:normal;word-spacing:normal;text-transform:none;writing-mode:lr-tb;direction:ltr;baseline-shift:baseline;text-anchor:start;display:inline;overflow:visible;visibility:visible;fill:#ffffff;fill-opacity:1;fill-rule:nonzero;stroke:none;stroke-width:2;marker:none;enable-background:accumulate"
     d="m 6.0072294,15.308238 c 0.0597,-0.3102 0.27572,-0.5862 0.5625,-0.7188 l 6.0000706,-3 c 0.5108,-0.2396 1.19916,0.058 1.375,0.5938 l 0.625,1.8125 h 2.4375 c 0.52358,0 0.99995,0.4764 1,1 v 1 c -5e-5,0.5236 -0.47642,0.9999 -1,1 h -2.4375 l -0.625,1.8125 c -0.17584,0.5361 -0.8642,0.8333 -1.375,0.5937 l -6.0000706,-3 c -0.36721,-0.1762 -0.60257,-0.5946 -0.5625,-1 -0.001,-0.031 -0.001,-0.062 0,-0.094 z"
     id="path4801-2-9-0-2"
     inkscape:connector-curvature="0" />
  <path
     sodipodi:nodetypes="cccccccc"
     style="display:inline;fill:#161925;fill-opacity:1;stroke:none"
     d="m 7.0072294,15.495738 6.0000706,-3 0.84375,2.5 h 3.15625 v 1 h -3.15625 l -0.84375,2.5 z"
     id="path4801-8-9-6"
     inkscape:connector-curvature="0" />
  <rect
     style="display:inline;fill:#ffffff;fill-opacity:1;stroke:none"
     id="rect5654-8-5-0"
     width="3"
     height="19.049988"
     x="-6.0023556"
     y="-25.046606"
     transform="scale(-1)"
     rx="1.5"
     ry="1.5" />
  <rect
     style="display:inline;fill:#161925;fill-opacity:1;stroke:none"
     id="rect5654-9-4"
     width="1"
     height="17.049988"
     x="-5.0023556"
     y="-24.046606"
     transform="scale(-1)" />
  <path
     id="hotspot"
     d="m-16.5-5.5h1v1h-1z"
     display="none"
     fill="#333"
     stroke-width="1.07568"
     transform="matrix(0 -1 -1 0 0 0)" />
</svg>
